<svg width="965" height="339" viewBox="0 0 965 339" fill="none" xmlns="http://www.w3.org/2000/svg">
<g opacity="0.65">
<path d="M161.695 201.487L146.008 226.722L144.797 222.081C143.823 218.241 142.56 214.479 141.019 210.83L122.539 167.711L101.555 210.337C95.7645 222.081 92.1715 238.467 91.6992 255.262C91.1166 270.566 96.6162 285.478 106.996 296.738C111.244 301.146 116.352 304.636 122.002 306.992C127.653 309.347 133.727 310.519 139.848 310.434C163.235 310.434 181.509 291.954 186.807 274.399C187.608 271.787 188.118 269.095 188.326 266.37C189.106 256.659 186.417 245.94 180.544 235.407C180.421 235.161 166.582 210.296 161.695 201.487Z" fill="white"/>
<path d="M243.292 104.306L140.053 0L36.8151 104.306C18.4469 124.343 6.30642 149.292 1.87433 176.111C-2.55776 202.929 0.910129 230.458 11.8551 255.339C22.8 280.22 40.749 301.379 63.5128 316.235C86.2765 331.09 112.871 339 140.053 339C167.236 339 193.831 331.09 216.594 316.235C239.358 301.379 257.307 280.22 268.252 255.339C279.197 230.458 282.665 202.929 278.233 176.111C273.801 149.292 261.66 124.343 243.292 104.306V104.306ZM192.453 266.74C192.2 269.754 191.636 272.733 190.769 275.631C185.02 294.521 165.227 314.643 139.869 314.643C133.19 314.741 126.562 313.466 120.395 310.898C114.229 308.331 108.655 304.525 104.019 299.716C98.468 293.767 94.157 286.772 91.3369 279.14C88.5168 271.508 87.2439 263.391 87.5925 255.262C88.0853 237.625 91.6991 221.075 97.8589 208.612L122.786 157.999L144.838 209.331C145.868 211.723 146.766 214.17 147.527 216.661L161.9 193.521L163.584 196.559C179.086 224.422 183.049 231.568 184.117 233.621C190.42 244.709 193.295 256.207 192.453 266.74Z" fill="white"/>
<path d="M609.57 140.113C609.578 117.336 604.031 94.9016 593.409 74.7535C582.787 54.6055 567.412 37.3523 548.616 24.4896C529.82 11.6269 508.171 3.54297 485.544 0.938659C462.918 -1.66565 439.998 1.28821 418.772 9.5442C397.545 17.8002 378.652 31.1092 363.731 48.3172C348.81 65.5253 338.312 86.1132 333.145 108.296C327.978 130.479 328.3 153.587 334.082 175.617C339.864 197.648 350.932 217.936 366.326 234.722L441.488 310.688L484.129 304.672L441.262 298.656C440.819 298.59 440.415 298.367 440.123 298.028C439.83 297.689 439.67 297.256 439.67 296.809C439.67 296.361 439.83 295.928 440.123 295.589C440.415 295.25 440.819 295.027 441.262 294.961L484.129 288.924L441.262 282.909C440.819 282.843 440.415 282.62 440.123 282.281C439.83 281.941 439.67 281.509 439.67 281.061C439.67 280.613 439.83 280.181 440.123 279.841C440.415 279.502 440.819 279.279 441.262 279.213L484.129 273.177L441.262 267.161C440.827 267.082 440.434 266.852 440.151 266.513C439.868 266.173 439.713 265.745 439.713 265.303C439.713 264.861 439.868 264.433 440.151 264.093C440.434 263.754 440.827 263.524 441.262 263.445L484.129 257.429L441.262 251.414C440.819 251.346 440.415 251.122 440.122 250.784C439.828 250.445 439.665 250.014 439.661 249.566C439.661 249.117 439.823 248.683 440.117 248.343C440.411 248.004 440.817 247.782 441.262 247.718L484.129 241.682L441.262 235.666C440.819 235.598 440.415 235.375 440.122 235.036C439.828 234.698 439.665 234.266 439.661 233.818C439.661 233.369 439.823 232.935 440.117 232.596C440.411 232.257 440.817 232.035 441.262 231.97L484.129 225.934L441.262 219.898C440.817 219.834 440.411 219.612 440.117 219.272C439.823 218.933 439.661 218.499 439.661 218.05C439.665 217.602 439.828 217.171 440.122 216.832C440.415 216.494 440.819 216.27 441.262 216.202L484.15 210.187L441.262 204.15C440.819 204.082 440.415 203.859 440.122 203.521C439.828 203.182 439.665 202.75 439.661 202.302C439.661 201.853 439.823 201.42 440.117 201.08C440.411 200.741 440.817 200.519 441.262 200.455L484.15 194.418L441.262 188.382C440.819 188.316 440.415 188.093 440.123 187.754C439.83 187.415 439.67 186.982 439.67 186.534C439.67 186.087 439.83 185.654 440.123 185.315C440.415 184.976 440.819 184.753 441.262 184.687L484.15 178.65L441.262 172.614C440.817 172.55 440.411 172.328 440.117 171.989C439.823 171.649 439.661 171.215 439.661 170.766C439.665 170.318 439.828 169.887 440.122 169.548C440.415 169.21 440.819 168.987 441.262 168.919L497.289 161.034C497.539 160.986 497.795 160.988 498.043 161.042C498.291 161.096 498.526 161.2 498.733 161.348C498.939 161.495 499.114 161.683 499.245 161.901C499.377 162.118 499.463 162.36 499.498 162.611C499.533 162.863 499.516 163.119 499.449 163.364C499.381 163.609 499.265 163.837 499.106 164.035C498.947 164.234 498.75 164.398 498.526 164.517C498.302 164.636 498.056 164.709 497.803 164.73L454.873 170.725L497.741 176.761C498.185 176.826 498.592 177.048 498.886 177.387C499.18 177.726 499.342 178.16 499.342 178.609C499.346 179.06 499.186 179.496 498.891 179.836C498.596 180.176 498.187 180.397 497.741 180.457L454.873 186.493L497.741 192.53C498.184 192.596 498.588 192.819 498.88 193.158C499.172 193.497 499.333 193.93 499.333 194.377C499.333 194.825 499.172 195.258 498.88 195.597C498.588 195.936 498.184 196.159 497.741 196.225L454.873 202.261L497.741 208.298C498.187 208.358 498.596 208.579 498.891 208.919C499.186 209.259 499.346 209.695 499.342 210.145C499.342 210.595 499.18 211.028 498.886 211.368C498.592 211.707 498.185 211.929 497.741 211.993L454.873 218.009L497.741 224.045C498.184 224.111 498.588 224.334 498.88 224.673C499.172 225.013 499.333 225.445 499.333 225.893C499.333 226.341 499.172 226.774 498.88 227.113C498.588 227.452 498.184 227.675 497.741 227.741L454.873 233.777L497.741 239.793C498.184 239.859 498.588 240.082 498.88 240.421C499.172 240.76 499.333 241.193 499.333 241.641C499.333 242.088 499.172 242.521 498.88 242.86C498.588 243.199 498.184 243.422 497.741 243.488L454.873 249.504L497.72 255.54C498.167 255.6 498.576 255.821 498.871 256.161C499.165 256.502 499.326 256.938 499.322 257.388C499.322 257.837 499.159 258.271 498.865 258.611C498.571 258.95 498.165 259.172 497.72 259.236L454.873 265.354L497.741 271.391C498.184 271.457 498.588 271.68 498.88 272.019C499.172 272.358 499.333 272.791 499.333 273.238C499.333 273.686 499.172 274.119 498.88 274.458C498.588 274.797 498.184 275.02 497.741 275.086L454.873 281.02L497.741 287.036C498.185 287.1 498.592 287.322 498.886 287.661C499.18 288 499.342 288.434 499.342 288.883C499.346 289.334 499.186 289.77 498.891 290.11C498.596 290.45 498.187 290.671 497.741 290.731L454.873 296.767L497.741 302.783C498.176 302.863 498.569 303.092 498.852 303.432C499.135 303.771 499.29 304.199 499.29 304.641C499.29 305.083 499.135 305.511 498.852 305.851C498.569 306.19 498.176 306.42 497.741 306.499L444.711 313.952L469.471 338.98L572.718 234.66C596.426 208.882 609.579 175.136 609.57 140.113Z" fill="white"/>
<path d="M927.26 104.295L824.069 0.0201416L720.836 104.295C702.463 124.326 690.316 149.271 685.879 176.088C681.441 202.905 684.904 230.433 695.846 255.315C706.788 280.197 724.735 301.356 747.498 316.213C770.261 331.069 796.856 338.98 824.038 338.98C851.22 338.98 877.815 331.069 900.578 316.213C923.341 301.356 941.288 280.197 952.23 255.315C963.171 230.433 966.635 202.905 962.197 176.088C957.76 149.271 945.613 124.326 927.239 104.295H927.26ZM824.069 314.322C823.573 314.322 823.098 314.125 822.748 313.775C822.398 313.424 822.201 312.949 822.201 312.454C822.201 311.958 822.398 311.483 822.748 311.133C823.098 310.783 823.573 310.586 824.069 310.586C841.734 310.582 859.14 306.333 874.819 298.195C890.499 290.057 903.992 278.27 914.162 263.826C924.332 249.382 930.881 232.706 933.257 215.202C935.633 197.697 933.766 179.879 927.814 163.247C927.721 163.014 927.675 162.765 927.68 162.514C927.685 162.264 927.74 162.017 927.842 161.788C927.944 161.559 928.092 161.353 928.275 161.182C928.459 161.012 928.675 160.88 928.911 160.794C929.146 160.709 929.397 160.672 929.647 160.685C929.897 160.698 930.143 160.762 930.368 160.872C930.593 160.982 930.794 161.137 930.958 161.326C931.122 161.515 931.247 161.736 931.324 161.974C937.47 179.167 939.395 197.584 936.938 215.676C934.481 233.768 927.714 251.005 917.206 265.936C906.698 280.867 892.757 293.056 876.556 301.476C860.355 309.897 842.368 314.302 824.11 314.322H824.069Z" fill="white"/>
</g>
</svg>
