<svg width="179" height="128" viewBox="0 0 179 128" fill="none" xmlns="http://www.w3.org/2000/svg">
<path d="M31.5352 44.733H1.52699e-06V37.3328C1.52699e-06 28.7983 0.984638 22.2163 2.95391 17.5866C4.92318 12.9569 8.87626 8.86897 14.8132 5.32272C20.75 1.77424 28.4627 0 37.9513 0C49.3241 0 57.8956 2.01047 63.6659 6.03141C69.4361 10.0524 72.9028 14.9825 74.0658 20.8218C75.2288 26.6655 75.8114 38.6999 75.8136 56.9248V112.251H43.1042V102.366C41.05 106.33 38.4003 109.304 35.155 111.286C31.9098 113.269 28.0417 114.261 23.5508 114.262C17.7778 114.294 12.1318 112.57 7.3638 109.319C2.45237 106.024 -0.00223501 98.8113 1.52699e-06 87.68V78.6328C1.52699e-06 70.3821 1.30614 64.7617 3.91842 61.7717C6.53069 58.7817 13.006 55.2918 23.3444 51.3022C34.4052 46.983 40.3242 44.0757 41.1014 42.5801C41.8786 41.0845 42.27 38.0426 42.2756 33.4542C42.2756 27.7065 41.8423 23.9648 40.9756 22.2291C40.109 20.4934 38.6675 19.6177 36.6513 19.6021C34.3577 19.6021 32.9319 20.3348 32.3739 21.8002C31.8159 23.2656 31.5363 27.0671 31.5352 33.2046V44.733ZM42.2706 59.8618C36.8436 63.7822 33.6985 67.0693 32.8352 69.7231C31.9719 72.3769 31.5385 76.1873 31.5352 81.1543C31.5352 86.8506 31.9126 90.5242 32.6674 92.175C33.4223 93.8259 34.918 94.6541 37.1545 94.6596C39.2792 94.6596 40.6631 94.0107 41.3061 92.7128C41.9491 91.415 42.2706 88.0039 42.2706 82.4795V59.8618Z" fill="#12184A"/>
<path d="M123.274 37.1937H93.5844V31.2461C93.5844 26.183 93.2926 22.9763 92.7088 21.626C92.1251 20.2756 90.6713 19.601 88.3476 19.6021C86.4611 19.6021 85.047 20.2253 84.1054 21.4718C83.1638 22.7183 82.6919 24.5864 82.6897 27.076C82.6897 30.4536 82.9245 32.9309 83.3942 34.508C83.8639 36.0851 85.2729 37.8164 87.6213 39.7018C89.9696 41.5849 94.7922 44.3242 102.089 47.9196C111.818 52.681 118.201 57.1655 121.238 61.373C124.275 65.5804 125.796 71.6973 125.799 79.7235C125.799 88.6913 124.634 95.4582 122.305 100.024C119.976 104.59 116.076 108.107 110.607 110.576C105.142 113.033 98.5557 114.262 90.8486 114.262C82.3039 114.262 74.9955 112.933 68.9232 110.274C62.851 107.616 58.6771 104.016 56.4014 99.473C54.1257 94.9316 52.989 88.0625 52.9913 78.8657V73.5497H82.849V80.5026C82.849 86.4089 83.2209 90.245 83.9645 92.0108C84.7082 93.7767 86.1832 94.6596 88.3895 94.6596C90.758 94.6596 92.4119 94.0643 93.3513 92.8737C94.2906 91.683 94.7597 89.1778 94.7586 85.3579C94.7586 80.1016 94.1497 76.8067 92.9319 75.473C91.6571 74.1495 85.1527 70.2213 73.4187 63.6884C63.5645 58.1551 57.5572 53.1317 55.3967 48.6182C53.2362 44.1047 52.1565 38.7485 52.1576 32.5495C52.1576 23.7492 53.3223 17.2588 55.6516 13.0781C57.981 8.89745 61.9296 5.67344 67.4975 3.40607C73.0698 1.13536 79.5446 0 86.9218 0C94.2465 0 100.471 0.927609 105.596 2.78283C110.721 4.63804 114.659 7.08635 117.409 10.1277C120.155 13.1725 121.818 15.9955 122.399 18.5969C122.979 21.1982 123.271 25.266 123.273 30.8004L123.274 37.1937Z" fill="#2AA9E6"/>
<path d="M134.843 2.01049L134.256 11.8065C137.252 7.84253 140.551 4.88267 144.153 2.92693C147.755 0.971185 151.697 -0.00445244 155.979 1.52742e-05C161.195 1.52742e-05 165.704 1.39618 169.505 4.1885C173.306 6.98082 175.678 10.2076 176.621 13.8689C177.566 17.5257 178.038 23.7308 178.037 32.4842V78.9445C178.037 88.9712 177.44 96.1039 176.247 100.343C175.054 104.581 172.612 107.961 168.922 110.482C165.231 113 160.779 114.26 155.564 114.262C151.519 114.292 147.533 113.284 143.99 111.333C140.44 109.38 137.197 106.476 134.261 102.621V128H100.713V2.01049H134.843ZM144.488 34.1144C144.488 27.3145 144.237 23.1964 143.734 21.76C143.23 20.3236 141.833 19.6043 139.54 19.6021C137.304 19.6021 135.864 20.432 135.221 22.0917C134.578 23.7515 134.256 27.759 134.256 34.1144V79.7303C134.256 86.3671 134.592 90.5148 135.263 92.1734C135.934 93.832 137.387 94.6608 139.624 94.6597C141.805 94.6597 143.161 93.8996 143.692 92.3795C144.223 90.8593 144.488 87.1685 144.488 81.3068V34.1144Z" fill="#12184A"/>
</svg>
